<mxfile host="app.diagrams.net" modified="2023-10-02T23:46:54.958Z" agent="Mozilla/5.0 (X11; Linux x86_64) AppleWebKit/537.36 (KHTML, like Gecko) Chrome/116.0.0.0 Safari/537.36" etag="l5d39vKgHqC6wn6AAQwi" version="21.6.8" type="device">
  <diagram id="C5RBs43oDa-KdzZeNtuy" name="Page-1">
    <mxGraphModel dx="1197" dy="680" grid="1" gridSize="10" guides="1" tooltips="1" connect="1" arrows="1" fold="1" page="1" pageScale="1" pageWidth="827" pageHeight="1169" math="0" shadow="0">
      <root>
        <mxCell id="WIyWlLk6GJQsqaUBKTNV-0" />
        <mxCell id="WIyWlLk6GJQsqaUBKTNV-1" parent="WIyWlLk6GJQsqaUBKTNV-0" />
        <mxCell id="X2m7ghWKRxTGVk6-8QqT-2" value="" style="shape=image;verticalLabelPosition=bottom;labelBackgroundColor=default;verticalAlign=top;aspect=fixed;imageAspect=0;image=data:image/webp,UklGRgRGAABXRUJQVlA4WAoAAAAIAAAAwQEAwQEAVlA4ICRFAAAweAGdASrCAcIBPm0wlEWkIyIX2rUYQAbEtLdqlR2/34y+sOh3VQVfWY9RA16T9jvSx41fmf8T+1/939LfIL7c/fP3O/yXubZW/XP77zL/mn4Z/if3r2lf1n7U+TfzQ1Gvyv+mf6L7juO/AX+s8R/6h6kn9J5Ef+P6WHov/7//z8UT/jftJ7mf9qPmLY2DZTIOcpLJuBBsH7+Qipi8j4NHRxBxfK0cCu/b9YKVHefqgxwR0X7a2KuMAAE7Eo0m4EhASJG7SmESYUDh5DGm9p4M1bT8H23tVwFk8ymcf5Ye9wUttms58Ryit96ABoP/l/Ng74xvnvbJrTErY2D2qkWjjfiRSEAXQqnRTDtCqWrqITZry3eNEyxuSpJSkoHDXbpXer1Ufz+ktxNNOzkJ3valA+hT/3/SmNXMSYjN/JFDxsBeyNv4+Yy2auvY3aU19jdob6bX2UGXVIfOSaHz2rXwLEVETLMqXvE/bsMreKDmEQUgbZOAC+UpPmz5lqb6YLKkHABMtYPt4bSUkxYk+vFceI3Vhl1CtzrRfGnIdsLiZKV0KZgZkSN2lNfXhm/9N9zVnJgiwGylJm+UYUB31gBaASJeUaj/+idLnMpkGckDk03QIgvLO3I451XA9V7cs7CMrN/wfPHy2SjyZPZEc7OzRibqppA0RTaM2W5PNIGrIYSsBEf8x2+Z04HdcLOCRLdM2bsXDhVkjCcGHulj/KF0cJxDRt3REif/ciymuJ7bD/7wS6XFYo19Jc/4wwh+HrqpM4NqhUiqgPrjsg4Y/qJxlI4vcMcst0DO8/Gex0AZxA//15ARyZ4zdvUBgKS91k+uFm+7rTssgjTEtmS/UlBzv4T+YN2sFAQXRGSU+Rq7az/JA6F9Mw+30kSOLilgatJrNrRGF/Y0JhtThSTHt+b/wDWER/fcWM//GN2lNferMmcn2NmBQb1oFfsygkNVJNAa2nD2GPz2zsyqwrzYJCGb85mum6wQohkj+w0dLaQy6AiNACDx/dZ7Z5jrvevn8qXUJ1ZNFVVP6z9ib+demnZV2sBBa6y7TEzPf2ZNQ8xWt7VSThrhX2B0r2xp6hn3IQnCEEtL46ZGNfHn9MX2t0TPnUhK+Pq2V0EbsGqT3ha2zfA/t108Xe/oai9A5OvXYe9TFJgEDQAi9MbAt3TPoZu0P/7oxdlvLWw4AnNLaO5x9ivkCGQaH8OUspN65tgXpssjevcaZQBQu/tSij5tP5HtPZ1vn6vB6LcudQfmsFLDDmjQ6VOSCTfUdxFDZHaK/qpRaG4WIyL7YfTnBCLHFGKPTFv0Dxgpx3FeZutcf6XU58bHRA9WkVaJ88B6FsdufzQPLmnMBrBHhS7gTpWIo7+NlnSGh/JVvU8Wv0YoP06O4jtlL/Gi6Wv3nliYhTCMS3jo8DImsNpfFuAey4ge+21HUjvTKiyrrwc6sCqMyOtattg32YXLrEmy9NiDaHFCbGiOjCssYz5tpi5hWOII7UTm+gOKMmrzN3pgOGLMnZ7FvalNfRUaa6DaaKo+kMwz/PdK4pDs+YbmXkQnw7kLDJRuAPHHfdGm2Pu0LBYpdyCS7PzYtqUagOGSp16d+c8Vg1bOmA5rLxXWm5sH7BC+QNCKd7EYqikjlEIkmhzoW1lDuMxxs2jLl31GGTAIuzvLHck0LdFqMWGGXtEGCLBZm2aGgI0U+cYA+NA/1uRboGrY3WTA9MnFxvmelxdemOSPhiAu3LxHfu2l4chCdIJDcOqeb/ccFWbAGtUy7I7vVDKoGI7D+FSQDgh4k/81FLfd86c8h7qcM+BsCQEex0bOEaTUElXhboij1GU8vuJ5rMtKo/rGOleFAEFKz0BTjNx1xAd4ybpoGvn7Cem5QZqPfBqBrIQBRUnehvRlqUz/+RU7e1o+QnNZ8f0n48xJGAdnjbd3BfOHotttRz8K0t/wDOF/6XuqrdxS0kJzYCi2Z6BmFfZrcw+cCyZDVgfWzzzcezuL4vCUo5RB7OVxW/gAvJFXOz5NzMyfiLuCY5vAVNLQvMgzkzScVHKP9vJW85tiVlRF0iDNpjktl3MGb5h2PkiGrYwQ0YIpx9Xuib1vWA49BYSITgZtO4DtT6VVykDPavja5XHBXJLJdWgBTTqsPs6S7vYaqi8C1Q3Q24uAaJldsDdiHRkmXJNm7EPMbSlWk6HXlFxXUmzLz2sswaOgUnVoqy+6gEsb1ON0IPSzv2OGw1sW7Y208P1xFCVq5Udvhaosyn41R2dhga3w0h0FlYevs2d9zrXgrX76SOxLTwmTT+QeE9qUXrko/j6yTyGQEksoNw/VFqDHtATYoRsWTwUzEZhvv/iOxvZcmR6M4kKKpppvTy7KsdyT+3vzTu5TCbfvdzZN72INpBOOsM/oW8BTsXMpwOYnkD9tQk/6r/E+8es4azmQnwAHYJ3qPxVg1xUpa+XE+5LIAmkLOf6R7F6j9uvshrWkSuOBhYMyDYKFCfismsVSVPHSb/0aMpWqrRgnqoKJN5lSZZf45/zOqcqxYXmH93oX9JjknHIZiuS9xIGhfR9JO5dTw3Bey/PBweTqGXx3DOHrUJ2A7R4TIlh1x/oY0mzFyVvYIcQT1nctkJUSSbNoDt3D77xXjwplvJzU8JiayTWYSibchxXsBYUAtb+TVyErPq3CX0E+QeupSmaMA3UXTvXzwbAlglqIxAp1Bg4LDUE865ACTKVOmbiq0k0Wxrnb1ILvRe48OOPLgFjXElb5yyBMQXnrF8pJb04wu+a5JtfMTU/tzTWa4Gx2OSqOLvJRpo3gcAiLx1i1Q1mj1ZKuHQnioknLTOkjiPKLFuE1YBJbr3E+yHt3GJqJvapPf1tY3mgdTVngNGCMAw6mgKk3MsCZat8vi7F4JmuIDEEpgETQs+Qv6lJoTVhjtK1sjXoujCm6vn0ES/Kl7c0csSNegXbYzNN6FaFi/avGBKwHQqEqFgwaqafFB5g2MwaExDqnFE5pOrXZWULoWLh0gXtQIGJk7MMx1yibX0XZMrpCZGqnipAeZIU74wUgrPnihSo11xs+y9xhaq/zl1hFArsJh6PUKEYyYR2YKBwXxGklO4IE6LOOiD5SV5P2UXCtFU4knaTPyQjJc7x81mkZ81EIv9aBFPNBx54jaaWD73d9NEJQegjAHP1qVuH1gPH8wt8W0szbezwsqJyYCyNJbQHTW8KAywJgNzCyaWSbHlkCU2bCuekET/bCTlC+1rVvgM+Eo6nBTujfDnERgZkc8WjWvYhPlwUUmQfY/YVbrKOzFsDUOSXJzSCfVBhTG9Z/f5OcxREGR6MhmRDllErUixiUWmYwela59BcNCV1CLmvj5kH9DY+GPEqWTYPb7k87nn88vw+aLE7pcW0lMl1S/6X8jWfyn0a/AQubfQNJvwXoC6OTsQyK4L6G91twn2kq+N0fgQXSOnFl2JE6DhwaJunHLZc9u0pr7G7Smvt7xs25hkB3+ACp0AKeTxXniZJGpIZ8H4RraNq7EVZ3TMmvz8z6qenLQPfBByLV2rvcjpYI9Hj+6tBDjjxws4JEjdpThrPYvcvgMDhvsi6OP8/NXvvISD4HGNqCKb/KKrGefy4cPdRX675Oo0o1cFDt5JSm1eal8+7cmi7vtwGDMiRu0prJcAB7XoE0W+ZPEkg5LQZf6T5KZka6ktIhI4HMYqN5/pwe1H9a01vKxttRKp9rTkVCAePpz4ASzTwN5A3k4ZCJaXOKuB+faU19jdZPNTJlm4ZmYxw/0YXBpakuC07UYhqRtoQRi+fq4E9JJMsdhRcF2O1W82+2sbZSs0RoCkTFVjS7oHqg1Z0bRcr265xK0bJZ+p/nYUkhASJGtaHJxFrIQrQi/e0L0nqEA1rkjr9QoeGPVg7X6PVVAygY/+EibvFBtHt4GUFXb23Yt+hOQSa3Smo21sBX8aFz/+FZq3Nu57mdjRrboJGWqWjWFKMDSjSdgP96bmeBEalzE7aK+4Vbax8zxuslaEop0P6Hjmrz4SbZZ6wx81PiORlecIM/3WfmFm4I+wAA/v6y2kRXZwsiifqIPIlz2ZkGMiogTLm12X5U548aFBwmXopmomVMPs0nZ0SNitjVEmasw/h9TJhvQ/Q16aPEaOFMEvYqAaLHTuNXAPHG3lLlMFPrmnGae9wJ/Q6onUSjjJ/IZOt2pQx8uL005u/kdSdNg7t3+iNohPACSboADT4+xj6/+kKYJNmYMhTKI0J2XatO7SFZcIc2Q28Pvyw/h1eerG/tDkZJ2gMw3QmSEOX0H1ew+uCh7f5rh+/9QB7qkOMN3HnnUAcYnvWGIqhOmWc0Fzw1e2ZRGsTw1YPgE7m2dkAVyw8vJExUMRBAGjE6hNIu3y7ZbisPQ4mIp/e5gE8B40Cy4uTBR9/shZVMsIpL1wdFywPY9mXZfb4Fwzq/2Nt3UnyzgzgnwdbSjyscEHRMrPIC9ZOtOyIsBmI+f73K+HNBa4fMCW1C0BpUK10TNHjK+Wn1v2tvriJxse1evfahXwpsJY3yCCm+H4eGoyscl1PMNNDWqLFjDb11N7A4X8UWHAsVb7IWGANZVOo27/tz3WZCfezwx+BdD3DlvIRxsuHZrPCEi7P3fZiAJ9R4HLlLu0rbflWEy1ug3+BMUWJtiXMGSsfMiAh/gvUfOeHlu9fmYFcBbz5sacvysPQHqVHvHUAP16XksSMmFyweaIF3IRi/oSVwYbbLLRIjF3aIQetPa8IlWtq/DwKSJr8Tu6PBkDE5GmvDIzzxn42TdmFzO0mPewoBqQusHhvfCA2Wrsk3R1Z+KQDc3l3QM9aPrZXfgAfUiSPoXu/P5IEISYvZWc8C7k1InljEz2RuybzqzvwyQpA6o9YFM/KWyKZ3hMRXR08Jx9A95b+ToONZgJZnPHcFQnGVUYY/AIAHWCf6ebTcEifh7j1ONHjk/k+ZbjKgfWxRK18bXnAhSWv1sUXKGa0p7utgDJCmXqorPbgmZ119Ma7fL073XcTJobF4W68hVeQ49SPIUgXMdwRwgqDI0CqodQr6objIfqHwYwaFkU7SrBh1c3IOnOu8F87bOkKlnwdCHhEDv9cHb4onIPM2bH85NLhOUTgnS4gU1sJPwb/5ymzuzS1k+p1+TPG8r06jFGRjrQwvG0Lhw4DPAEzD1VVUH4XbSp35VtIOKmN3fprm87UsGf/vyphQaPyAAYhNhvA0mfylB+2bW1xtyXlEzMtTMeCgIJmP+FKmtFGgIEK5EqE3WjJzwS6B8CFWZG0CrT+VMBnfQBhcaaXlapw9U4CA5tlcPD6pP4Fv3FpRKGic9AWSuzwuHQjeiyRj6xyxaz6M6Q5L/1HXXXdRW1ZqY+spquiUWKS+kIuC+C8hM2pHZOBoo5EHjLEYUqualCqRNPwwiWRpovWZsGCeF1QNmItQT9U9VPrhN3ZxHl5qZeZ4A/RBkYoRLAln5A9tTUGUoYXcHECi9emBMNuHiCtYeWNC2yvIwbXp43YkD299mA9oLxp6dHRYW5c6l7QQn0N4psibh7ETPIYbK1+jh4vKUfzFXDXOKnezi8Q5YGFFDFEYDYaL3CeJPCSZXetzCRhiiC2vymYCbNahQmFHSiyAWO82F2yukTQXEabMS2b7XUfWgaNeJSPa8TDr2ko6Auk30qa9OX3+wyMykS7peERHsndraA6AdRPzTD1jHbOzP6NPZz2wO98KDUvW7HFzAI9Qb1CebJzbZbOSWRmEF9H0wFzXioXSyAKp0/VCtbe3xeYPVvT8G1F7HrPFKM3lgLBC3gQk5gw2mjyl1elIRirW0CJnqeIdXxPp1h+207Guk5XEJSZ8LcVqbwLi5qqpUTmk1635d7jbs83hnMUH5wGXjEBkgr9/xmSpLjSEGjOfkMBBJJ+hOUnPVAhAUTYyGz45ntZju/6TR880/FPlnNPkfOyCveoaCXWx5Eo3w9goYxJGEPf9aLUsxoloJUY+Wr5xOO0/pu4QoEZrMt0K9GyZdkXZl9gnkmH6RNAQOoed7y94ZR7OFq9Gzlmq9pVIfytSJqh0wI9y2Ziy7iMLwsGlsWrPc7H8l3j8GdoWiJyC6368kJN1M39OtyNno+Vb2jSS+9FFMf48RSyN7g/efdsoZy6WQcuc/Gv313dUwx+OKE9j+9eEbbCIUgQ6P/KM2zjFi9JSXFgUioo5XALW7Xhzngs6+OxxwmVk+omCnwdXdqY96D6RclYPdiIwNLNqDNwkrCEJr9qZkp9gdw2l1nTdWU3Xh+9lbZNrK8B7DJljCY2f5yiU1vG8dwI8AlxMHQBi06mh/lyqqsMpnbYi9AK3eDShAuoGAWpgJIDHL2/FdgioH4GtfvViSqm6zpMfF9wKuIcafLvDI/QKoQaJDegaJhQihs70H4qKkxrV2cq9zgBtBUlzmGFQ17C2zYpuKS8gcOftgDrcFqhlus2erDEYCF8zYRlPsYKdOTGBrExwJDGNy3CAiJwWeuFeK11WmnsbM8YYXhG6uNrwsAC62py0/dFdHe/PsOV2SVYuO1PkNHNscc9X2LStOW8sCE3oL0wECkUaYWjTviGPhyLx+yNiN9xlJigAJuqMtxqqV/NXC6Epenjmrb1vk0j0I33YFuynXMq5mt4nTXrlDBeeofYvqDVZPn0urgPNGufoK3M+Z0MBdm0MRj9xtd+tZNXwAXcKMROTJvqAGZdyREJBIrpMUXBkygfcQ72225oOFYd1B/9dkFamkkBBK46RQVxAsFbC92b358DIuGZgjCMteNE7VY+O3IKVzwngNTkV0Gi9uP6MvgelekMtMEzYhXnnhiIP6WsAzep+ibHsiBkhCN3sDvui9MmSoUhnPmwQGhwwi8rLQ1Ki3mR7F5Bxa2YG4zGIz1gl+bipTEsIsmlFj4Rk6olhKxmCZhT5wtAB2jZO9TX9hzd1WPJLENtxlCkDxuTAxQWJayK/ufSYKY1PlBMI2wRg8/hx7TTvITh9DTCaRiO1NPdnrkbOC4v8HuhZRT2sQ7L/5sYJwFt8tUlJEPHwJYDsDs0dF3ZFDhk3bEEtd4tfrs6zTx04QwtdQM5MUOn9ENl6Kt2ygArSehr/clB/4DrvXXGs6tn/pARKGnNthSmDVGev5KgADH2R1gCly8PK4F8hHH+06IW8D0SgMiUrGUOO7f/qcoefi72a/QakMmSLA8vxKju0wuE+aAoQkckaSjhjqJtpFZf+IeVx+HoxPD866kqF0GOFtw36FmXPAQSzugjfZSqviBFEdK592ExGO4kg0ZlgK5HmDoTTXPs4AdDUGkZr/35pT29HlHWADX7U2jTFk9NY6YUx5E9ljfmOmgwZuFnViFvX1IqFrsd4eIYN8OawkQlISl5imjABp57hTxwOdT7hemCOhO09dDBxwqaclfBecQ/qo0VP/DdMECV60dTZQZCB4avNdCWoscqA2/sEXBgYHMMjM7tKuwdH19tP/FJo4IGwTQ7sXNR9da0NYaAUfRUkVmFq7zgxhC55Zy/cwz/RFwnOy47pnHnTWow5OuIWKDC7LOUoDvMOQ0YXEskXbmVsMEqk/qDOHBnjPrqdUlRuugBT228rVHr8n8uV9YabPACfmlb9vn7cRs2pv1nU0EVNA50qbOORYQYYroSFZwvpqT3+/Yc57qzhLunXgJvz6hZvRJJfuHHBh/nz4J5qRGzRrPVA02UoHnYGTrz5U1uJMEM7qWRn0gJ6YPbVFcwE9Z2wWXMIGvB3mm/RtNClR9sBSXYhe7AIA2b0gxH+Fns94beIUIBA39TH35J2NQbjLv5qu63jlh2tc34LrGQ17fnjk65nPKGPlJYTMiXqIHQ7facPdpOe2e1d9Rxn8ioevo5+Sm8gdtK1T8rNKnLRCfl5Q/fmNaE7Yo5hG6IZx0GTZf43ioATn2ymkUQecNuOCifVY7mnQiEYK2OVFct27gQAzeAtGsvVaIv0M79Xju4n4r6XaVyfI2Z+B3aX9q7HH+2OdTQpmEFlMCNvE4KP7RNDakCasv4xloutMi1IODzZqPzi8jOfVKuUPLaQPt5QT3PjtMQwbEgbklafXLjmjGrBd1IaXNFIao/d6ZZHm+0/1c4gdye45ZDaTTynhiH4HYE3AHjYO2V4RYnIPpQAzV8HL4XYD6hsjozZ7SBuPIW/6OkbfaJiMgBPb66YNmwwm0uePghWjvSjFEzC9TMbe3l1N8TEGYz60+jnvImdagSyGnK+W5h3t3XzGPfR1VXyjFJL2pStclZkSkaX9JyNAu99kI5C3Xcjhq1lUNeZnpGYfeycauZjilxYObfVzr1Xxb6t6CXo5upBjhF+x3daHlnX8wR7+7GAHa4Yqk7BSraMaJV2a9tlKHCXXp6dWRlO5OeWxHlI4AFSkbO5RCGGu3sevKBqwuuHMiSt0Ti6RwuMHDc7AZyOM3ZwidE2UChh2dafbPbtNRitmczi1hG9YQ3qe0wjLvEKk0cDmcxka6D5qDp3hZSW2FrmVhVjWsHrNTzAI5iKhLL6mJXWtQolfDS5M9taXlHUHULZqTf9MBsmtHMDbY4tTN0ZX6SiSlV4vNzVu8SFOozhC9Nbq7nq4rGS9uLelnUvnCdhhh5EsSFqLa0bQlcDChs1MbRfjnk+1+RhwYqixfIuikM7V7qwtT2ktuR9VDp75vqdxJ7jG593yj2psn+79QYmHjBvUDd8MLFcNIaS/+esnOB6ihi1hvYKv/0VGMHIz1SQHW3j2m0oWxZsiCNQjZL1oMslgQIGBxYygMle8RfOgoJRHsS93ZLcKbXflWRRFzUGRD7aStUeaXkfUOn/+A78lPor8nW6x46bJshlEtdxXgOdDij1wfwplEu+z24fLgpyjkTV5J/eekCvExfQD8v3EaiufjA8/XWDmBoOMWp6IRw2RvklG6XWaRREz+5xmpH/ZJZmaI8xQihxmlteqOh/icAZg1zfinohPu25Tl8DiahoCPEK/jswhAgVmdHpA70sWoFhmcmQjpdH3cXQhq/qHO+5o+C76H8dR9CVLNNFbJ2VHglkQ9i6WNOm94FEyrFogSH5fMtfSsw38wBKHTsjomk7LbhbXuTwrQ+Y5fBzdCbj6MKmy305ebFWFv8YtC+gX3uT1OUlwuJXBhDc9HVielltfg40yOJFrReUTSaoz1lhzjWn+lyRIX1tmLyDbhZDUEO/5eOUA+JAMz3iyJ6M++9macffkOPRsr5T7+9/JYUrMTTXk061Om0RGdGw8vM41exM9u/i/JXc4JtUcihOyf1ujsn2+lsEKD6lI+/a5P0dbSduWSc9zvRvix8q3xAA52P7uR+sahAY+Vy1Ys1I+HEIEV/TDAqNUJcm0Mps4HC4ddJJfgCYVutTCkv85H9ZGGtXooKMdpfd938cewLlQRwmK+vxENYgB4BtQxhnPI6ofluaSrMM7k3qmvTrBKGWej7NANpt3f+8RpCtyCVzeStiF2TNdk0LKCcPXWzw7RJDROeSE4WNYkzv9fmvdo7Rjr3A+GfLrD5AIFRGKqKFnxKqjQgITmAdAra5pcRKq5EwcKyzUxppHvI4YyL1DrYcfIhO8ozVGrx1K94HZAnSwlbD2e/csbrZnqI2k+JusvD28KoaUc/EQtWQt50Vzu/7Dsibh0ARDzz0juqlxpnndUnW7i13yGAAvB7+++XUWjnjrbHGVdtCV9v2yvPKQQR7NL1xg/5EI/l3ZiqVdbva5OOVc6uxhYzP/GLt9L1knRza4K+1wPV3auTr388mS5OozQ/d/TEmcPNPPKMZfofAW7PwtOV+lPKmsHlg+QkavoK14Uvq0lok0MWdaf8LRFxET/Riwdjti1RXxo3hfc6MR0HGiK52m/lGtFl26oU+wpFEdVydWkCSReXZVJkgdwfWpxlVGL6fzD/Jjy6Dy/CA3MqTvsjV9YeZwnMV2zxrY97J6g8h87lyX6iW6qtx/GOFmaqZlfb6kAE8uHHD/1+sw8cLoTEZOqZBJDMQqjsRbUjhC6sJ093pfx2QiYLxm/VXkrcuyDAcLa51aO7D9SsBagXr2ef3YB7Ax9cTEgLRVCTb3VoZj89SmuqiVe6lVxemWxbh4fOjOdwlQClMO34R4sYT0SOv2NczrvwdELqtF33vAocKCO1TYlnD+drJDXGh1xj2MSXc7rwArCyy8DkGvseT2BmLz5B3hxBA1ulyRU1Wg99oKPNqig9hFl/4UAlnAtcM2kTvfVVoT9xZN8jDPuQee76cbJZ/WI8hwK8HH/R96sSuboT9aFkkNHUTs3tRBUgdkbwOt9CiWgJIN0zOuxGBu/ZgCg++lIulzkoWp0cw4dQSU94rd56ezQcxekxvaoLmKsYfHJZRfLbxYs2D+X+F2q8Aqm/Mp69yCG6sJac50ZB4w5dCpPe7vhFwOO82aBxz47brrvLbADuwvFUuS6J8g65uuSB8E6P1eH099V9ZMRP20ju2LwyFaJvMkFEcIceVf5CDpFFnQo5vggAbwXCqSl1Wu9s2wy3bucKuaXmGaC2haSzO7/c4lUTtDN8Muizbd81JU5iR2ui2tzGxfvxUW9cN4Uf7E0jIOuJcFfDjaWzXJCftbwpXNoUjaBLL4gl1XFri5uvNeFbOEYongF6FM2z/Pq7dWtHvmC65/tL9tsY8UHUGxffXJY8irNcmHqJ1+LYSLQVVfeTxLgUwmJkzColiF+mtPOa6dHBBssoygfnpgxkzH0emLgsVOpjOH9xQJGcbEg7boKF466Xb3CbYmXRc+6DKiIAhMh2CS9H3mgnoLPcaTF4fTmJ3x89e95dfVtHSfiOl6KkBojistbkX0Z0ycMB2zI/iA2j5lOHls0V5Gs7FDzrUJJGvVaWdJL1wYVHOKpAYjHyghx5X2GHFAPl2fIVkSUTh+lLjHRvaBCFJ00/ygybgmuVWBsjllZ7RrSqdsk7+r25XDDgjy61sDwfPWadeSd9Skza2rnrgY8EPz23IpP3jAOMmdKNvLaBFlcyijQ/ZEJMU+eTX9FwAIyYe/V03wpJSbOGClOSOr9h9JyA34Tf8iX2zvrSP5IyN3+g4GhVtUxuCsZyL5n/oK4WKmhoXa38P7h2rvLq95P3a341J/KU2rMRz7mtAZwzE2u/6yGd8+nwWtGM9F1QS7sI2vzytMFd1ixCnAjAZ1KoNjpbAcMxp9iTzDrAXBQ91uIkmZRQtnHi3mLUPW0ma7yy8jWNHLM/4kBd1PtzD4nnwyn1JBorU+K8l6kEMlFrXyWZttcpPHSZty7D5YbSkPrUY7GFRjU0hAH3QBcYtCrslwGKFXQR3yTbOBfFad+l+cDRWiVtYGds4HE4Xm40nQBp1OvSHCHSIy+njGJrzSvuT7WTSml0PDPWunOGR1IyQ/bYhrmg4OZJbwaO1H4Ejd2Ye041Mp0LPzlPNo5l1ViJkkuv92hjxyC9syV1+7POdMG01lSqZK9kHhPzx7HdHVBQi0ER76OgF8rYl6miABg2opwzXEs6JPVlVld9d1mAylcizvFMaCjNglykKUS08wGnn37/ggKwBiCbvjVU6n8HF0N/+NdMW+Ltkwa8cvxKFPPOXnOvUNVQeMqq9F01vyIAbB26b7aQo+LoAx7ju0iXTHZtIuaJgZ99SJT7kEv9CR5w6Zy3DKjl1ht4ReikUPTBJ5CooZjmIKu9/h43fI3LQQxrJM9SkpYs+Xsa7QUVckh6jCMI2Sm+yGaSuld0xzNiFuiOuCzBKtX5jhclahT5WD1BeBVYh8W47kUCzJFIcWZY/33rQYKd7QlJfamYhDYG9MOqPK4ZEI+13fZkpZwmNJKPOHYkwnkjGRkden/vmh3aN/Q3/ALjMwCThyD+Nfmm9Bk/k0RbEGxh8e5fDbxphcmEdFCYZusyZpDqNgud+OJIDf3yYf7nivISNJVd5K+WQzf5soedQvI5Jael3HcocJz8MHmXsq8N8HXSYH+Sfq4F6hLGgkXEyMbKznK9rUpyaz50Wwo1C4UzBRJRjzrcBYY5GDB1Bah0so1BYDt0JCRa5DkK0289COuyAuRFEUNP1Fj7PmUplLU4OL2PrbsiVtafp8E1YE+rxM3c2UFN+pp/tey+LnXFLZaK8VOqlVIBIMg09t7NoIORAhxO9BEr5at8hJoDbimOmwDoLm5UnPqBsuoGkvUgW7ZmlUhSx9Tf3IpdEmGaegroYwy24m3ja6RG2EgyW7pQrWCHybx2t0s6g7lXiu87OeE+ye5kY5spMaN82ltWNo4ZoDo9Hbi8cAt4v6Ky0n7xbWnE9oxnPe6lbKjlovd7tTNt61wQJmxWgeDwASVA7ayIZHgrVh0LW6PcVds9wnJl2Gc7CawOmgWFR8W7rdOzTmauzjuUcshmZ79tyq6Rs8zW+MHRFA/umGKMZUsEmXlh19Lnd5VOgrV12/PGDVZTzAtI/iRuW7nQ2LFjmmsVjcWq7H26s9voTxmhRfG++dz4F8nSTCmk6TdFhMqLytHZJ2TXp1bgRtyzORBRa+hSrispPDx7OG91kxVGgZbLl2ADd3bUR1hBYeI7Tq5m0ZODO77E64juTD6vClHSVaO2PEh5SpPztCYFgC8DmgzwjfivcoyFPQ6/1Z0Ik1ie3wx+qLBJKHmbVbpk5DN1OPWZYsB3B8x4hBO/JX431muUfVgYbzd9TiSGA2yA6LQVzUaFah/V40FllmORgDpumtA+vi3WQd0MIyHhX7Lcj9Xhj7oirknqJDXtgWx0vs8F9olgiF9OA/sQRZQuIOUFBphCLkJlISy9ILwe3PhJguMOxhR185d3UVU248i15t4fY1o6RrvCJztmmhrEZ2tiT7tmS7UOzMcxe5KYCw6GspL2NwsczQZX1gt8qzKISOklr3TUGpGhsZDmcPVoB+n0MOF7SBSNEj3GSIrCLVpNipF+rf4YBD2Q9PLtyRsrORh05igGu0BNQitr7Na0hOT+2dJTo7TY95W7qSvU20fOoAmZkkrStc4pD3OGtMQKVVsaWiefCW8BWHwipGVI2dVibeFoYOkzEe4kVpmwScxPnuwlGHdokzVpwARaj+cDeOou9MG8MB5F8+dQ4YxkPGcirCo8f5JYA5b5ktAAUXOi/wajX1MvxiELV5fnXTKJNmAGaFj7+cC2tat2rsahol0NbyfpWinWPnXzSSNktzUh7KMYeIGYefgc0DYAN7J6ENHBuo50mu2Ej7LsW2aDiPWyGp9lO0Lxc06ECiWHql0ffZJe/zXhxRYnVBw0RUbvSECbBbiwHNuiA6lImTLEVOkEhPGnBSNcP+IX6IldpKVhTPcX61giYB6u+SIwov8c1GLA82LMvN8bpyjQCpJLoD5MLZb66q1pTTI8Tiob0YrbpH7tVSYUFMaruu/bWWevEshJEtWLzfkhVzGD0LPfrrjJ8qI5Agtw4IPrwZ++7vA3ZK1vdT9q1NcVPYrU741F1LcTNVgW1TT1SO8mqY+cvHvq9a7jQsz41TUeJxk9s5FlS5e0nrNTnDCxouTGCfa1Qz3yrBgX872ZdEV4ElufrIpoVHUHhBI4TLwGqsz8MQs6oQd6xyQc9b4XgtSf+FPY9gyS07qlMD87zfZjeWsGQAb5qeE6T79onDEMK+wSI5ippBaBuwzk2cfP6ngLYHVX/arpck/VEUWezouQ69PNG2XfJeZTJQffcWcmBc8JNuUOK8foUNiwtlOqY3ayTvugRNtfyvPRvEbNAl10+Y1emr88iSwf9XzN8iSpHEosl1jekFgU99oMYeznSqFGq6SjO72W1eey/eVq1LPvwXlUmsKTFwOHuCadXPSClS/uaqTa9KlEBcTw9YaSCVXYYo5EcQbgb0JpiZgcI93gnhug4a8C/ILrXF2+DHjXJdRqUAKITimylVRpdGxwtR6qb4UiV6f6UlB/U/x9um+ksfa+uWDGC6tEcbdR9PJaSyYjSdgmQkp+6McjQ8POYRgXJKmto+c8lU91xxK4lNyXU6hWAuY4nU3Nc+NpZoLKhYgd7JkGXdXxH3s37hU0CXQ68Rg56ySVjOS17NEjImnZ7KlwZPkZcpD7QX2AtMuT9Czy4OYVU7LPT668h7vCIIJKzhLkTL/YFfYqs9Pw1OIlpbpmS5HG51Uw7p8nq7eacukXwC8W8HVgjB2Tv6j97iuaSHe34HumH8M1Mo8r+kswQz7ZEqAcxKuI5y5xvGJI/aTxulsh7ExlUfwHJFxBD/qAPb2+nWyAiW6fN8eyhcYR1Tpdsp/u9VX4VL6afMA1M9g76s6e5jVpEpmDoFQj2qh2a2wjTQ9sS67/1XBIbi//8/5X90lV+5DT/ocj24tR1sQxLa0rk7fgvRnljRlMrnaXFxLRqatRMyX8MB/8wcybCo4+rYC0jGq6DrTvIk34ScEZ+tRc0vOJiEGbk19MlzbOgA3ehLI6q7gpzua14+WwGBkLwrimeBWdwQuIkSOi5iT79b+JphFr2xdJj6uTRCrvPALeVzmmqwX9Ghyf8NNicUh5m5Rf/UbvewPEdJQa+gij6dtWCyYm8IGcNMcLkmG9vGQLnbqm1eSjnkXu3QmcG+ceWxqUDcQb4EAf9RfSieus2UPVLUrQTqTAvsofru4u12YEZS2yoWh8+FjA4IGnTJdK1+MrK8uZmOMd5w2+W6DwP0VuszY8l1p9etffrUVny4KC5qVd+e6JS0IIeooT8vLvQD7WQQZ02Rc6WyuCL26ZIGaOxMCSsNa8c992jE5/vOpfgI2vsbaFMWhX0vaOCZBE0iVo+/zNcdf6VPJJJOOJmZet8woL5SDcFgR4R0R+3M54VW4ewBKRo/wQwxlHSGUk+0xNZmgMx5uFV0uXAoSNL3931uVPEU48XaACXVuGIIW3I/4wOyX23qZgGDTgx5xOXnf39hgZxFqNHINnxc0Xq46AcIgjT2qFOZwxnrQPacI2+5kyOO23q5LIxFEbmxqZa9ceVEf+fwa5HdoJRyqQDbEJkLsjEDWmtrp8l5PHofJHMyq2t9yDUkTPEtPz24fCXNcBkCL8QGkcH4tlHbM8QjJP9+7M9CiHM0IU3kDBbiocIUeDtA1xXJYwn3fwwy8lPOK2KasA9cDrarEzHNVH+Z9RPL6PB61T8PkfBW/k2hxxK4a2tp137Fw8ZEwgsZm/Q6yMkiCcrVuoduzez/g9jrOtEH9PFXo32DGzJCPmCmtcQ8tDKBgCoOg0xU+lNNDY05tJ6okfpG/f5rE2DVGnQuoQ8ESDjb0gZeO8vbWgeSHSXpo273QRa+CeBhiN/yaIAi0ZxuidUaOJOPjK4Za3iGgWmI5Ec6WuxTaFTWMxiDGFLTWM6yUmlhn68ozj3BrJEfYGupacrxoH/mh3Fb5hKzlSK3CJJqpdtZuhaf2UpqFX15KtTYy/9TeQSm+3yy2864KLkPKGAyV9OBlENjYaqc6CDGrhlcHfxLCOc/w8xSbdbo37bXMT/G19+l1QKWeo0Kx/Jtlmsvh+LZR25crLc9kg79la7bPmL0589pQIb+BFWPPI8zwxbLYEZQ0anyFQVoHdKIgk0fDcboIbexJydSWkRihu+p8NUZN0C7y/isheKbtJF7Dk+A20lhMUl4Pw3wMAQKNwDicpQGclvga8r4WFDLFDQDFwAIvAUK+1BDgSgyg5JS3RUMQGExH9mCWYUDmOyxX6GVSqFitrM7sgGhtU362Ese7PBwD8H5nZFVWg77n10OYTXlN5ppJPp9C7LMFbBjAtuvrbaCyBkRV7u/0cBRDjdWTTfZX3DEghjriIHNYQLCy6OWmDRg/Yjn6e6mhykTrmsPC7iIBZi0TOdewpCUMgqv0R4NnReLakyMBjoLXKXGO2TidsFy3kLrcgYWHVoMaEKE3nZdbbsqEecM4a+mogwN5jBbpXxO79sk3vRNQSs/M5lPLdY9/La/8FifwowQtPxR/nC22jGoLseleS3nu7JrZW+bLTUfyvv/lgkwAUNgqYEHnAfvsNd/bpk0pvl+WgdaUfLAMeW9Vqb/Uz419dBdI6lJuf8XptapDThKAHWlDGEi96nqpsJ6hmhFfZ4/Hng6V1szWHP5zoUiJf2AeAZ31iYaPjs+6RU8OlcHLfwgNcnlonjwQR7Yt7WF5R+hSXY4/1tqeS5dvVksejn+L3e42f9UuoUUoA6dORdx7R/m41WJR+JUiNcgrIlT2oPWcNySi6UjtImt8QfVWKQUCDeIr7J5lhkOsSB1utCo3TTgIGcKLlsqy+M5tegBdfuZTsYx79TGZx2Svp7uolVOAIEH7Ps4OmIkTvTAMwilDIdGASt1W5q2VXePF6dgCHj8g7lSHDUadRLOTMekn0BvSXuJBA2U0h2HpN4e+KlbSEHsAi3GwEsQTBjIjUQtWIf7LMnX/0+nwPTRK5xvRzWhngoM9PTAlXDodszoovoxEYoWvTNu4F+6h0fm8V/WEysdWTnJIbi/+Tb05wSr2DsDjyjIMokIk6UeRoK41an2a7mV/EGqZdqIDx2MTPVFj4gveDNsbWWq9IjeiOS/bce6Px96bVoEqoJhQcnk9scyNearo8MSP4/4ogmGmeK+ZwizSamX1DbR3XNVgOvLQMuOpHXAABBGuYlX4qjq1lvuDgqOHFKZsV71k3/QATE1sRBUTKINg4aVRpxcZkhH0II1JJM397llebvCOlWh8ITNNMcKd65EYReYOyj9pkicReEy1yVcLn184fZwC8/Wv1sh71TZEQKqFUJVxXvSNT3NDkbX4F2fkmwAbD/sQlRDG6N8nMV5m1OuaKLodkAqnIm/XF5RdNRYyAHXAdUZ6VSRTtI+PMMml82UvfqXV5mBoYM3DqFhvN8ktCjn2UrBC6T3UnBgdDNWCIApEJPdNv8PzxbyFGAn6PXIZJKVruHSR5jHtAIzBQgvOKMCmexKBfFETDFxNP8dXKhmuUjMglktLjGLGAC4F9X3Av0IgfoovkasvBkKxXv95ZzWGb4E3LUzk9kUZ5j8JfJ2uCzK+XnuBZ4mOssafISMtGHtmWQVpmsbXWMypAXSuoKN9iWf8UDYIi4zPRkoZMvxACKiBwEXd1IG/wjC4jRjTSCBGzIZFu4HKFbC+TNqpw96TTi3k5EAL5Y7sk4k0EKzGuLizWN8/lf0cc14hsYAS49y18yMXUV7clGVAQteVjXm/Ydtt3P89ffb+eb97CfaUM9xL0jQyDzArT3FndMmX4AjuGjsdGB/uB+y+2y7ze7V/U64CzQOHrvnYKsIE7ldXxuwbQklx4eDY2JWWXeSTEeXfdsdPr7XP9ClciiRj4Or7+FlldlMypUKTuLmaxdM8IItD2jBk/VVy4ZCuicJnX2I7gUDyRY+0c4l1VULaoXVWG06cKPVfLhL3ElcjfQ9Gh005K+h4e49uRVROJ+dWZ3FZTFQU8rx8ZVedmHJxuyvLORo7zA2Wa1NW+Hjc63hJ5dYCueNiBjYJ7wTF5AdC7wLoETeRnUTTtuM6ejxXQcHCNuo3EI4Hr4C24GUONxZnCbpLWSi5+jWq3M9c1wsYzNNHGZ4IeCJUcB2Fitib3gwurUKnJ4UjGxYfd6rvd4XyNUcDqlIb1xxnDjtKoHnSxO4FYaSjhLge6HUAm+ObTvIPxsEytgKTiF0F2paQcNnOz748y2e7J8RIRXTuFbOIFXopMfCQk4jxZDmSbom9fAliJ06J7XiCcGhKFZ3Bs8u84tbwwunDs8HseTWzhcKfxQoJNq4FTIwQlNXpk5X/tpSwhjsCe+U4pvKMDnIQ6Dh4ehv8cWQkK5b/lHSMOpfZMuiwh1l7Qr79tHqo8KXEPsH31GLmGSnfBcQ2gqMQPfxvKpFzJiWzkk/5LsvjisqQfkS9jmFy9Sry3GhUC/MWwkem6qD4zZ6HryghFXKCF6wkL6VzYn8acuwWcgywptzX8vWUoJYdGV7a607EG3/vj64yfEn3oyxznQk2I0vCBiKVTsjhxYGJ7hl7kh+mKnHoSTjWzdaa5sbdRWxrQfaXhU3IBBoWGu1ZYGdzVeW2ogQBYqLsVjA6tz46HQTT7LbLQcXB0UWt9YIGAyUzVWe39LdbMVigTWuOJw2yfhDDD7Is2oL5ADdmy5D31NEiTk+AVtiIqxOVTlsmA2rRpop27Lgpaion+T4vP8vt85xkP392pfemy96y6Eu34iDiN7aLjFnvIWEoUQJM4UQPR77OtKjVmzNUwewMM8F2Aj7NDABGHDBJ/Mpm46XXvmda8RDCyrVhb3tQkmX2WIExqAAGqj/IU7OuXAljN9+CqcWAscEeBxdIoUIfow6FTmo0GND8G+hwIyEdO/B+f9iL5jnVLP6fxTLQQ3Dq3Ejzwz6DfXEAw/8+LL5AnQuCbWVqARbe6LY+4o2PP20AjY+9uXEWezbe+P6l6BasZrHqJL6ux4gDQAMuvBV/tcQ2gNsxpGx61BMDQ7/H6IsG4mIhNfEw85WsN6isomkqSZ1Sv/r20mLLy3lrcZ8HolYIJj4+yoo3VQkU9pbada5GafesEfbrZp5qdW84cmJDlUSW/eOTYDU8b13VzPFyvo3QO8it3y0/0Nl/rqbFhJX4XBeJYM04SFzbNkiD6c8u0LIbfbIDoM34f//0wEKyec2ZD5ByJHUng13XoNQb/7yQrOuxo8+AX2XYlHew7uebm4aN+LSQ3IwGvagdrot8Uq1VmDLGVHDTCio7pUfDGOGNIlNt99Xgbyb4h33JTi81FqW3QmMrECTFoOSjEJFqzpku5sXCjaT9NT6WrFuSDb6S7ALqr56laRnKMSs+bpdY6Q1MOMg8lCbowl7/EMRusIYr8FLT5kxqGa4qocm8CjDnPXrHVnFCJLQFsPzYghp1whkjXrZqp54rCyBv2/LkfDQi9PTdQB7bR5MeDqzjI6Ef+PbC+m+bqCuZUO/fTSgnrdxMZQmrPSVW299cYByP5aWS/sPwFaj3laMV3+nb90to22NWdw3Cq4eCYhQZGoqCC+v1CSnl3T67HJlGi/BzOZd0PNscja9FGgA1AemDIL0/M4xwAYg2yadaSOe5gum6bpuB5q5AK7cGQppOOJVEJ6uy6ryXUTJHZyFdhqUjsJ9WqE/bQ3wid3eW/vA007nHrtSN4SEE+vszAcY/hoMIxdOEUm0KNOvXVox616KU8dCAPpmq4pVcZyi7cY5wf2Iqm2gyuwxkOcjHGXYPEzriJpmyyEpYOqhzyVbaewvrf3VmQpkkri0n6xxZ03K6WoW2ZrRUEUbY8jv2TcuP08dNFH84p9C8UAkOlJxcidZ75HTnfq+HcTvQkdWEp0xT8B73hs9z7RZapSbiQwWyNK2mLMnOY+S0Li1jyMvueXwaR6snVY3Qm+76GpnwSfy6xIoJLw9cB0sTHMDlIT7pBQ9tpmlTYao2fEhlTSz78ky67rDtiJw89Rk3by6xQQRe95QDXhNxfVnp8OhtEoHOb504HipgkWzW0+Gu3vvoK831xj1OVm/+qyDfefv6M6ftmCudkPC5SEWEAXeYsCo6H1yNn72FJyS1bL59DAmhe/g8hBVLWHeZRbHlzZh7o1g/HIgVPplKVtAMLzDaWWmmIU78M+57IcwkNBJPPnnX52lOtoooXrkP3LTjGLxR2qPU33p3taRENPaZ8sq1Km62E10ZjndPUHnDHQ1rBxFdyg6wkna9Xf3rhGLCIRHlQKvKwAcRvLq4wAs0AUarQxQbGcu95hFfwk00l2QZpJ/M6DfxCjvKncoaGUpefnwyYHzH9qmZd5zrtA+y9l9N/tyZTonyVeLXCDm7zrQ548/dshsuLrUl3bMIvNyvFzGbgzmLHpxxxaWlqkg/vPqoXJ78/qldNPzmMW8UON4QnxrrxCBdqDLbuqKY3wGBM+QUor6OPALZ9fisixipDtHpOtTVNjBvycyIwznjeE59Qgvynelu38i1GZuZZs2hKKOke2FwbnyAmrq7OY8AtW6wT8B4i2XeTMbW3qkFOz8JfWTkq85uLe9S+TZocyhyPTCElZlQKifpKcBJgPrStgDFrgyGJ6ADyRN8mAJ+4ja6SuXni61RMIYkdur3R75/TLrtAvxKTnVQfI0IInGCpGAXpo1Eh9vX+psw2zYLIiMyt55RtnvaP7PGx4r+n+pJPj6plo5zX9MByeklmO7l4bDf1l8zK+iporeDizujrXDcx+fQYDN9ngYxnKRe9Ucmw5A+f5/jXbT9yjEu1WaEIzUy2M9MZreAv5RnuqVgav7/hpJRjG5bwK+SI83wdkLgN+lQvRAqynG82AcGtwdaUE2bYebndxuP02fZWY+tXGJiuxiaiFvHG/J70K+sRgK+7SC2lE8tZJKGLP/4keWpBFmgTwat0ECsHmrjZ2XoTjIwmqC/05VXRseiwLNv0cA2mcZ1GhReOJtpXq2tBz6I45zBPNhcElotwjat2RRgaty49BzDLz64vO2CafG9soleYhRT7mRPEZTKtCg7cEiRboxUv7o6w7T2VEYFpMGVHQSWzB/oG9fb7wzXii/tq0k8TZIi4ddkzLIB6sIAQCHB8JuoIIcQHHv8Z2J4tAkU19ZMsYcbGk8qC55JQOvsrWaff/D3W1m1V8JONeLgK++zGKYLIQOEVRQSStlNzIuLw8gjNMLE/qxY86LH9+Q1/Jer044oILKzX/5CRV7qINfBKuMbrmDH8rwmcZvm+fCzA7DXshNs5MnndzX/LpKKKCkSIvh7FTq5tPe+e6MFVR/P+AEw0Z1xJ2HRjlx4YfODY3GwLER3FCfcmPD7Fatg7i62bTclze41j+3d8MoPvfe1nCvsb8xEJzIlrthKwn6GZqcOjuiUI6i6WvTGhq1hijjvoSkUq+aVxSepg/1985rKiMoA9AJ0It9k0agcp0JozMmzNx3ZBEFeneUEjl7z0s5PaoK/7F83HiMjymFmHmk3wgBkzlef8ltjsrfKPtNgO3gtnlIGbXgW4XpkW+ypBqipkjdXD4lnpA/l4KYQrHUMJ7u2RcOjJNDl8AUl/8kpcmaninVGg/JyADekfspnENNG+bqMHTkpCd90pjCu9ATeZ42mk8NHxyXNOlBoPZVxrZeIwI0cc9qrPvEqwaAWiV9+gEwsXS38DtvSf3Z5L2GV5FpvoKoIbtVk1YLKxlOfVQh9vdRcBHC3KfCW2rVQVgyT1h67ZVNZ+vCJ4dB4kC3aEytnVgO/O8yD3aAmze1jgJbZGRt0Zhdz8wyYs7/kno7GYAAAQe18xb27dEZs54ZIsh8Yc/kC37JmdqdQG5rYJFEsQQzrChbQiD1oUOSW8tW21uzXN87RnxS51QbSAO+aGmPlMDd7AWtLU//M8Uc6dhAWketv9jh96AlL2uFnje9TA06Xv2q5p5C4eKZmI5mpSq4wEAKK3r7/os81S2cXACtr1kmI85GNTz9jE8Pccs5iJ0yVqlCrDb1bd1NNn1CZJ0ulCn+kyRK+Pi80+YClJp9HKJnJU7u7BTTplvbArEmbhmrfwnLPpIsvbHttj5nkduAFk1bJx9TSwejtapMbaBdFgiZnuCGWX1+fWOxrDXBmTT1nM22KaTLvBs3jetN6fdlIh2h9TrGeWLcXAmh3k3cDAc66hIyBFusw/sa1IAAc/qGr6id3CN5CavjLJloML64lY1JEz/f36/M6T7lXl989bNCiMGni6z20LsDiYSTyKDPCXuvudzKsJpHa7tHaz/uKtZc+vLaES/HNKRftiEXA8Uit4LYiGnMZCoUKi2VSlTVXsel4Aln3F9818xNkTTCDMzBRix8rHhkEwoiPp/qFQPg7NnWS7x/PSXceeTXHLGUPgbRxt3gArutTG9GwwBVBDx57xRymcZnt38WcXGugCjhHmawArIRf2DvaB2bP59ubo4E19wHvAuSADmIu/cGtsV3D384SLswruENNujHdUmuVVZWk1reWUgOcw5DOaQ0Yj0qByrKudH1UF8cE1Ld67eKv4dPJ6zOCWul7g5JbCgVUp38I/Jwum98U70BBTu8MPL93PTIZ8vM696AwBYQpWKJG/6aI9EEvO32b2lXAGO9kmNIDRIwGEmfJnv5x2STalb5TdLIBXyLpFFsYwawbkD+dDdoobZ9JjUUOUX8b3aT9FEWUOpoKo14s09Nnqowg7tgHrI9dTRO8re0ek3gWD4TV4iSnRXAXng3o4W0Sulz03FebJnADmQq99GvPZhqkam+7UsUJD2zmOMLyihUWb3rXN2VtQ9zsSLkdAQ1x8x2PJIJOatvwxHUKxjyhACMDmS9e6/IKiOAo7CezjVjh7KJoxnp0EfGeD0VzXbbuxWS+wy7NsTwyg5ic60t4DUss1raBp8pFgjX529awhS0BkghLrIJQxS5AjMZChbEmfIxjqF5EjNQV8YrAmQcQLDNmLg+HOeI+YJnIJNVa19bCWDRBIoE6/JZ61ChWGe/czspHKplyFCjucGfxe/m98BqZGZiSMSMBVOzGFQwssbTyq+EkyiHncvV7WW2ww+yoghxU0kKOi1RH6U+R+gtdbn9gCQ8OAAlcC5pHTohIcSpKW0oT8lla1nLd7CJ39kF4cB6RynFCJblT4yKBiO1vXP8XcLebt0yjYakNZ19L0k68VfdV7WGVPW6YlFM444mkm5NiRGOIzG7Nt8oiKoTE9MwFgRaCfXLCiKLWF/ZX4R1bbZFmgYONHEQfVPH/FN02VlI+W39uMImMFF9PdpCWfNNtTCxc1fAdWMsO37+I0iamT4NGnq7bhIF9GLoSTK+0ONAheg8W0YdL5ZiAsW9RBPLo9onC+McCK/UOA2h/iD6DMA2UHmnRHxDZ1pLOlLwcR/Nf3UsoHIAzDqoXAAFtwvlNi+bgDlW3jmljXtGxXN3otEBitGMEZc4KikCLPKd9rG2TH/RPf+A4p+tRuIqlyCmDSS2Lee0sA/fJBcVkHWd4/tmCH+EdVHTk0UU0NhSP8mVodEu6r1C7TR6QfX6UKztAdmYeVJaNHBfSoSj3x63MSOe+d71GOrzW9qwyQXke8dak9eh+ncyA25uvPDTSyOln6SgoBTgpfYKvm+yoHpbfAi8ogMThaTnNpevgHMCfqrpWsdK+aKhi0xvXRTj/pl5aFEvrvb763H7nTBF1/CjznqrSYbEE22dNCMpn/Ntp9DICCe79i5Tpy3OTrgtrpbthhiV6Yfnbi/FRxD3C7mBKgvge2fYEpf8Ehq0T8fN3aWxk3gdvtsyXLOvWx39EdMaIENrbu8GEvBpBS6KgncaHNYWPeOL/DbG13PXTesQ5OOWLrAedOPYkW+A0F0aak06JvTfZ4FEROJ2qvqsC0Ij4BbSTS21BhKypiHlVwKzdO1YuXKoo7o68OGI7nVYQVTrXPSQv8NZgGo8ely09HicJwMqbj2HupG90dhFFHRBFTF6sI8hN3vlBM3FTnltlYahKSZIviF/DqDQfzuR8kWBFtrktpkn/BK+77SOwyFVeMPqfso1z78RzgLxBWvreWv+QITbThVFjSTsaenn43urGvqcWOqrQ4ab8UdOCnYVF7tycH5RJHRCfRgwtA1NOo3nVLxkxHhsmrTeTQvpbUSFJc2UuKBrPSgidPhJBjKfHioU4vN6zQ1n9Cl5wJhOAuR+2noY0xEvmjWt193x0MZi0SSY/bO0eqdonVhIaQm367v9Mfag6qDQTSnRehQuS2J91ElaT3OX8zoCg0p+xxFbDEBVABaSs+ob3zdCDGDX6wjReBmOfdu3+337ZQbHclgK8UcQ1b/zA/JbnaFUFIABBGAAABFWElGugAAAEV4aWYAAElJKgAIAAAABgASAQMAAQAAAAEAAAAaAQUAAQAAAFYAAAAbAQUAAQAAAF4AAAAoAQMAAQAAAAIAAAATAgMAAQAAAAEAAABphwQAAQAAAGYAAAAAAAAASAAAAAEAAABIAAAAAQAAAAYAAJAHAAQAAAAwMjEwAZEHAAQAAAABAgMAAKAHAAQAAAAwMTAwAaADAAEAAAD//wAAAqAEAAEAAADCAQAAA6AEAAEAAADCAQAAAAAAAA==;" vertex="1" parent="WIyWlLk6GJQsqaUBKTNV-1">
          <mxGeometry y="10" width="310" height="310" as="geometry" />
        </mxCell>
        <mxCell id="X2m7ghWKRxTGVk6-8QqT-8" style="edgeStyle=orthogonalEdgeStyle;rounded=0;orthogonalLoop=1;jettySize=auto;html=1;exitX=1;exitY=0.5;exitDx=0;exitDy=0;" edge="1" parent="WIyWlLk6GJQsqaUBKTNV-1" source="X2m7ghWKRxTGVk6-8QqT-5" target="X2m7ghWKRxTGVk6-8QqT-6">
          <mxGeometry relative="1" as="geometry" />
        </mxCell>
        <mxCell id="X2m7ghWKRxTGVk6-8QqT-5" value="Investidor" style="rounded=0;whiteSpace=wrap;html=1;" vertex="1" parent="WIyWlLk6GJQsqaUBKTNV-1">
          <mxGeometry x="380" y="80" width="120" height="40" as="geometry" />
        </mxCell>
        <mxCell id="X2m7ghWKRxTGVk6-8QqT-11" style="edgeStyle=orthogonalEdgeStyle;rounded=0;orthogonalLoop=1;jettySize=auto;html=1;exitX=0.5;exitY=1;exitDx=0;exitDy=0;entryX=0.5;entryY=0;entryDx=0;entryDy=0;" edge="1" parent="WIyWlLk6GJQsqaUBKTNV-1" source="X2m7ghWKRxTGVk6-8QqT-6" target="X2m7ghWKRxTGVk6-8QqT-10">
          <mxGeometry relative="1" as="geometry" />
        </mxCell>
        <mxCell id="X2m7ghWKRxTGVk6-8QqT-6" value="Quantia &amp;gt;= 200R$" style="rounded=0;whiteSpace=wrap;html=1;" vertex="1" parent="WIyWlLk6GJQsqaUBKTNV-1">
          <mxGeometry x="620" y="80" width="120" height="40" as="geometry" />
        </mxCell>
        <mxCell id="X2m7ghWKRxTGVk6-8QqT-9" value="Deposita" style="text;html=1;strokeColor=none;fillColor=none;align=center;verticalAlign=middle;whiteSpace=wrap;rounded=0;" vertex="1" parent="WIyWlLk6GJQsqaUBKTNV-1">
          <mxGeometry x="520" y="70" width="80" height="30" as="geometry" />
        </mxCell>
        <mxCell id="X2m7ghWKRxTGVk6-8QqT-14" style="edgeStyle=orthogonalEdgeStyle;rounded=0;orthogonalLoop=1;jettySize=auto;html=1;exitX=0;exitY=0.5;exitDx=0;exitDy=0;entryX=1;entryY=0.5;entryDx=0;entryDy=0;" edge="1" parent="WIyWlLk6GJQsqaUBKTNV-1" source="X2m7ghWKRxTGVk6-8QqT-10" target="X2m7ghWKRxTGVk6-8QqT-13">
          <mxGeometry relative="1" as="geometry" />
        </mxCell>
        <mxCell id="X2m7ghWKRxTGVk6-8QqT-10" value="33,33% ao dia" style="rounded=0;whiteSpace=wrap;html=1;" vertex="1" parent="WIyWlLk6GJQsqaUBKTNV-1">
          <mxGeometry x="620" y="200" width="120" height="40" as="geometry" />
        </mxCell>
        <mxCell id="X2m7ghWKRxTGVk6-8QqT-12" value="Rende" style="text;html=1;strokeColor=none;fillColor=none;align=center;verticalAlign=middle;whiteSpace=wrap;rounded=0;flipV=0;flipH=1;direction=west;" vertex="1" parent="WIyWlLk6GJQsqaUBKTNV-1">
          <mxGeometry x="680" y="140" width="60" height="30" as="geometry" />
        </mxCell>
        <mxCell id="X2m7ghWKRxTGVk6-8QqT-13" value="Retirada após 30 dias" style="rounded=0;whiteSpace=wrap;html=1;" vertex="1" parent="WIyWlLk6GJQsqaUBKTNV-1">
          <mxGeometry x="380" y="200" width="120" height="40" as="geometry" />
        </mxCell>
        <mxCell id="X2m7ghWKRxTGVk6-8QqT-15" value="&lt;h1&gt;Fator Agiota&lt;/h1&gt;&lt;div&gt;O usuário pode retirar antes dos 30 dias, entretanto, quanto mais longe estiver do 30° dia, maiores serão suas chances de ser pego pelo AGIOTA e ter sua conta deletada.&amp;nbsp;&lt;/div&gt;" style="text;html=1;strokeColor=none;fillColor=none;spacing=5;spacingTop=-20;whiteSpace=wrap;overflow=hidden;rounded=0;" vertex="1" parent="WIyWlLk6GJQsqaUBKTNV-1">
          <mxGeometry x="465" y="270" width="190" height="140" as="geometry" />
        </mxCell>
        <mxCell id="X2m7ghWKRxTGVk6-8QqT-16" value="Usuário" style="swimlane;fontStyle=0;childLayout=stackLayout;horizontal=1;startSize=30;horizontalStack=0;resizeParent=1;resizeParentMax=0;resizeLast=0;collapsible=1;marginBottom=0;whiteSpace=wrap;html=1;" vertex="1" parent="WIyWlLk6GJQsqaUBKTNV-1">
          <mxGeometry x="159" y="470" width="140" height="120" as="geometry" />
        </mxCell>
        <mxCell id="X2m7ghWKRxTGVk6-8QqT-17" value="id" style="text;strokeColor=none;fillColor=none;align=left;verticalAlign=middle;spacingLeft=4;spacingRight=4;overflow=hidden;points=[[0,0.5],[1,0.5]];portConstraint=eastwest;rotatable=0;whiteSpace=wrap;html=1;" vertex="1" parent="X2m7ghWKRxTGVk6-8QqT-16">
          <mxGeometry y="30" width="140" height="30" as="geometry" />
        </mxCell>
        <mxCell id="X2m7ghWKRxTGVk6-8QqT-18" value="nome" style="text;strokeColor=none;fillColor=none;align=left;verticalAlign=middle;spacingLeft=4;spacingRight=4;overflow=hidden;points=[[0,0.5],[1,0.5]];portConstraint=eastwest;rotatable=0;whiteSpace=wrap;html=1;" vertex="1" parent="X2m7ghWKRxTGVk6-8QqT-16">
          <mxGeometry y="60" width="140" height="30" as="geometry" />
        </mxCell>
        <mxCell id="X2m7ghWKRxTGVk6-8QqT-19" value="codigo_de_passe" style="text;strokeColor=none;fillColor=none;align=left;verticalAlign=middle;spacingLeft=4;spacingRight=4;overflow=hidden;points=[[0,0.5],[1,0.5]];portConstraint=eastwest;rotatable=0;whiteSpace=wrap;html=1;" vertex="1" parent="X2m7ghWKRxTGVk6-8QqT-16">
          <mxGeometry y="90" width="140" height="30" as="geometry" />
        </mxCell>
        <mxCell id="X2m7ghWKRxTGVk6-8QqT-20" value="Depósito" style="swimlane;fontStyle=0;childLayout=stackLayout;horizontal=1;startSize=30;horizontalStack=0;resizeParent=1;resizeParentMax=0;resizeLast=0;collapsible=1;marginBottom=0;whiteSpace=wrap;html=1;" vertex="1" parent="WIyWlLk6GJQsqaUBKTNV-1">
          <mxGeometry x="339" y="470" width="140" height="150" as="geometry" />
        </mxCell>
        <mxCell id="X2m7ghWKRxTGVk6-8QqT-21" value="id" style="text;strokeColor=none;fillColor=none;align=left;verticalAlign=middle;spacingLeft=4;spacingRight=4;overflow=hidden;points=[[0,0.5],[1,0.5]];portConstraint=eastwest;rotatable=0;whiteSpace=wrap;html=1;" vertex="1" parent="X2m7ghWKRxTGVk6-8QqT-20">
          <mxGeometry y="30" width="140" height="30" as="geometry" />
        </mxCell>
        <mxCell id="X2m7ghWKRxTGVk6-8QqT-22" value="id_usuario" style="text;strokeColor=none;fillColor=none;align=left;verticalAlign=middle;spacingLeft=4;spacingRight=4;overflow=hidden;points=[[0,0.5],[1,0.5]];portConstraint=eastwest;rotatable=0;whiteSpace=wrap;html=1;" vertex="1" parent="X2m7ghWKRxTGVk6-8QqT-20">
          <mxGeometry y="60" width="140" height="30" as="geometry" />
        </mxCell>
        <mxCell id="X2m7ghWKRxTGVk6-8QqT-23" value="valor" style="text;strokeColor=none;fillColor=none;align=left;verticalAlign=middle;spacingLeft=4;spacingRight=4;overflow=hidden;points=[[0,0.5],[1,0.5]];portConstraint=eastwest;rotatable=0;whiteSpace=wrap;html=1;" vertex="1" parent="X2m7ghWKRxTGVk6-8QqT-20">
          <mxGeometry y="90" width="140" height="30" as="geometry" />
        </mxCell>
        <mxCell id="X2m7ghWKRxTGVk6-8QqT-25" value="data" style="text;strokeColor=none;fillColor=none;align=left;verticalAlign=middle;spacingLeft=4;spacingRight=4;overflow=hidden;points=[[0,0.5],[1,0.5]];portConstraint=eastwest;rotatable=0;whiteSpace=wrap;html=1;" vertex="1" parent="X2m7ghWKRxTGVk6-8QqT-20">
          <mxGeometry y="120" width="140" height="30" as="geometry" />
        </mxCell>
        <mxCell id="X2m7ghWKRxTGVk6-8QqT-24" style="edgeStyle=orthogonalEdgeStyle;rounded=0;orthogonalLoop=1;jettySize=auto;html=1;exitX=1;exitY=0.5;exitDx=0;exitDy=0;entryX=0;entryY=0.5;entryDx=0;entryDy=0;" edge="1" parent="WIyWlLk6GJQsqaUBKTNV-1" source="X2m7ghWKRxTGVk6-8QqT-17" target="X2m7ghWKRxTGVk6-8QqT-22">
          <mxGeometry relative="1" as="geometry" />
        </mxCell>
        <mxCell id="X2m7ghWKRxTGVk6-8QqT-26" value="Rendimento" style="swimlane;fontStyle=0;childLayout=stackLayout;horizontal=1;startSize=30;horizontalStack=0;resizeParent=1;resizeParentMax=0;resizeLast=0;collapsible=1;marginBottom=0;whiteSpace=wrap;html=1;" vertex="1" parent="WIyWlLk6GJQsqaUBKTNV-1">
          <mxGeometry x="509" y="470" width="140" height="120" as="geometry" />
        </mxCell>
        <mxCell id="X2m7ghWKRxTGVk6-8QqT-27" value="id" style="text;strokeColor=none;fillColor=none;align=left;verticalAlign=middle;spacingLeft=4;spacingRight=4;overflow=hidden;points=[[0,0.5],[1,0.5]];portConstraint=eastwest;rotatable=0;whiteSpace=wrap;html=1;" vertex="1" parent="X2m7ghWKRxTGVk6-8QqT-26">
          <mxGeometry y="30" width="140" height="30" as="geometry" />
        </mxCell>
        <mxCell id="X2m7ghWKRxTGVk6-8QqT-28" value="id_deposito" style="text;strokeColor=none;fillColor=none;align=left;verticalAlign=middle;spacingLeft=4;spacingRight=4;overflow=hidden;points=[[0,0.5],[1,0.5]];portConstraint=eastwest;rotatable=0;whiteSpace=wrap;html=1;" vertex="1" parent="X2m7ghWKRxTGVk6-8QqT-26">
          <mxGeometry y="60" width="140" height="30" as="geometry" />
        </mxCell>
        <mxCell id="X2m7ghWKRxTGVk6-8QqT-29" value="lucro" style="text;strokeColor=none;fillColor=none;align=left;verticalAlign=middle;spacingLeft=4;spacingRight=4;overflow=hidden;points=[[0,0.5],[1,0.5]];portConstraint=eastwest;rotatable=0;whiteSpace=wrap;html=1;" vertex="1" parent="X2m7ghWKRxTGVk6-8QqT-26">
          <mxGeometry y="90" width="140" height="30" as="geometry" />
        </mxCell>
        <mxCell id="X2m7ghWKRxTGVk6-8QqT-31" style="edgeStyle=orthogonalEdgeStyle;rounded=0;orthogonalLoop=1;jettySize=auto;html=1;exitX=1;exitY=0.5;exitDx=0;exitDy=0;entryX=0;entryY=0.5;entryDx=0;entryDy=0;" edge="1" parent="WIyWlLk6GJQsqaUBKTNV-1" source="X2m7ghWKRxTGVk6-8QqT-21" target="X2m7ghWKRxTGVk6-8QqT-28">
          <mxGeometry relative="1" as="geometry" />
        </mxCell>
        <mxCell id="X2m7ghWKRxTGVk6-8QqT-32" value="Retirada" style="swimlane;fontStyle=0;childLayout=stackLayout;horizontal=1;startSize=30;horizontalStack=0;resizeParent=1;resizeParentMax=0;resizeLast=0;collapsible=1;marginBottom=0;whiteSpace=wrap;html=1;" vertex="1" parent="WIyWlLk6GJQsqaUBKTNV-1">
          <mxGeometry x="509" y="620" width="140" height="120" as="geometry" />
        </mxCell>
        <mxCell id="X2m7ghWKRxTGVk6-8QqT-33" value="id" style="text;strokeColor=none;fillColor=none;align=left;verticalAlign=middle;spacingLeft=4;spacingRight=4;overflow=hidden;points=[[0,0.5],[1,0.5]];portConstraint=eastwest;rotatable=0;whiteSpace=wrap;html=1;" vertex="1" parent="X2m7ghWKRxTGVk6-8QqT-32">
          <mxGeometry y="30" width="140" height="30" as="geometry" />
        </mxCell>
        <mxCell id="X2m7ghWKRxTGVk6-8QqT-34" value="id_rendimento" style="text;strokeColor=none;fillColor=none;align=left;verticalAlign=middle;spacingLeft=4;spacingRight=4;overflow=hidden;points=[[0,0.5],[1,0.5]];portConstraint=eastwest;rotatable=0;whiteSpace=wrap;html=1;" vertex="1" parent="X2m7ghWKRxTGVk6-8QqT-32">
          <mxGeometry y="60" width="140" height="30" as="geometry" />
        </mxCell>
        <mxCell id="X2m7ghWKRxTGVk6-8QqT-36" value="data" style="text;strokeColor=none;fillColor=none;align=left;verticalAlign=middle;spacingLeft=4;spacingRight=4;overflow=hidden;points=[[0,0.5],[1,0.5]];portConstraint=eastwest;rotatable=0;whiteSpace=wrap;html=1;" vertex="1" parent="X2m7ghWKRxTGVk6-8QqT-32">
          <mxGeometry y="90" width="140" height="30" as="geometry" />
        </mxCell>
        <mxCell id="X2m7ghWKRxTGVk6-8QqT-37" style="edgeStyle=orthogonalEdgeStyle;rounded=0;orthogonalLoop=1;jettySize=auto;html=1;exitX=1;exitY=0.5;exitDx=0;exitDy=0;entryX=1;entryY=0.5;entryDx=0;entryDy=0;" edge="1" parent="WIyWlLk6GJQsqaUBKTNV-1" source="X2m7ghWKRxTGVk6-8QqT-27" target="X2m7ghWKRxTGVk6-8QqT-34">
          <mxGeometry relative="1" as="geometry" />
        </mxCell>
      </root>
    </mxGraphModel>
  </diagram>
</mxfile>
